<svg width="40" height="40" viewBox="0 0 40 40" fill="none" xmlns="http://www.w3.org/2000/svg">
<g clip-path="url(#clip0_45_232)">
<path d="M20.0252 30.3216C24.7386 30.3216 28.5596 26.5006 28.5596 21.7872C28.5596 17.0738 24.7386 13.2528 20.0252 13.2528C15.3118 13.2528 11.4908 17.0738 11.4908 21.7872C11.4908 26.5006 15.3118 30.3216 20.0252 30.3216Z" fill="white"/>
<path d="M4.90731 30.7548C3.71811 30.0592 2.68371 29.1244 1.87011 28.0096C0.0289145 25.4196 -0.487485 22.108 0.479314 19.076L4.15451 7.558L6.56611 0H33.3709L35.7805 7.558L39.4541 19.076C40.4209 22.108 39.9045 25.4212 38.0633 28.0096C37.2497 29.1244 36.2169 30.0596 35.0277 30.7548L19.9657 39.7772L4.90731 30.7548ZM14.9793 16.0004C13.3953 17.6832 12.5645 19.9448 12.6789 22.2584C12.9033 26.3512 15.9425 29.682 19.9673 29.682C23.9921 29.682 27.0313 26.3528 27.2557 22.2584C27.3705 19.9448 26.5393 17.6836 24.9573 16.0004C24.5033 15.52 23.9853 15.1056 23.4185 14.77C22.4553 14.1916 21.3529 13.8876 20.2313 13.8928C20.0557 13.8944 19.8801 13.8944 19.7061 13.8928C18.5829 13.8876 17.4805 14.1916 16.5193 14.77C16.0065 15.074 15.5333 15.4428 15.1109 15.8676C15.0673 15.9112 15.0221 15.9568 14.9805 16.002L14.9789 16.0004H14.9793Z" fill="#FBBA0E"/>
<path d="M24.4368 18.6324C24.4368 19.3664 22.5696 19.9604 19.9668 19.9604C17.364 19.9604 15.4968 19.3644 15.4968 18.6324C15.4968 17.5612 16.8704 16.0024 19.9668 16.0024C23.0632 16.0024 24.4368 17.5596 24.4368 18.6324Z" fill="#202020"/>
</g>
<defs>
<clipPath id="clip0_45_232">
<rect width="40" height="40" fill="white"/>
</clipPath>
</defs>
</svg>
